<svg xmlns="http://www.w3.org/2000/svg" xmlns:xlink="http://www.w3.org/1999/xlink" viewBox="0 0 287.61 214.57">
  <title>Credits: <a href='https://www.freepik.com/vectors/people'>People vector created by studiogstock - www.freepik.com</a></title>
  <defs>
    <style>
      .cls-1 {
        fill: #f8b133;
      }

      .cls-2 {
        fill: #94a53a;
      }

      .cls-3 {
        fill: #f6d9a1;
      }

      .cls-4 {
        fill: #72bbc5;
      }

      .cls-5 {
        fill: #ad9ccb;
      }

      .cls-6 {
        clip-path: url(#clip-path);
      }

      .cls-7 {
        fill: #004b74;
      }

      .cls-8 {
        fill: #013959;
      }

      .cls-9 {
        fill: #dca678;
      }

      .cls-10 {
        fill: #f8ba8c;
      }

      .cls-11 {
        clip-path: url(#clip-path-2);
      }

      .cls-12 {
        fill: #331b19;
      }

      .cls-13 {
        fill: #d74b58;
      }

      .cls-14 {
        clip-path: url(#clip-path-3);
      }

      .cls-15 {
        fill: #293033;
      }

      .cls-16 {
        fill: #442928;
      }

      .cls-17 {
        clip-path: url(#clip-path-4);
      }

      .cls-18 {
        fill: #003662;
      }

      .cls-19 {
        fill: #271511;
      }

      .cls-20 {
        fill: #ab0f09;
      }

      .cls-21 {
        clip-path: url(#clip-path-5);
      }

      .cls-22 {
        fill: #e5332a;
      }

      .cls-23 {
        fill: #153c37;
      }

      .cls-24 {
        clip-path: url(#clip-path-6);
      }

      .cls-25 {
        fill: #422918;
      }

      .cls-26 {
        fill: #6e7ab9;
      }
    </style>
    <clipPath id="clip-path">
      <path class="cls-1" d="M189.19,167.16a45.07,45.07,0,1,1-45.07-45.06A45.07,45.07,0,0,1,189.19,167.16Z"/>
    </clipPath>
    <clipPath id="clip-path-2">
      <path class="cls-2" d="M287.61,45.13A45.13,45.13,0,1,1,242.49,0,45.12,45.12,0,0,1,287.61,45.13Z"/>
    </clipPath>
    <clipPath id="clip-path-3">
      <path class="cls-3" d="M90.13,167.16A45.07,45.07,0,1,1,45.07,122.1,45.06,45.06,0,0,1,90.13,167.16Z"/>
    </clipPath>
    <clipPath id="clip-path-4">
      <path class="cls-4" d="M189.45,45.13A45.13,45.13,0,1,1,144.32,0,45.13,45.13,0,0,1,189.45,45.13Z"/>
    </clipPath>
    <clipPath id="clip-path-5">
      <path class="cls-5" d="M90.25,45.13A45.13,45.13,0,1,1,45.13,0,45.12,45.12,0,0,1,90.25,45.13Z"/>
    </clipPath>
    <clipPath id="clip-path-6">
      <path class="cls-5" d="M287.22,167.16a45.07,45.07,0,1,1-45.06-45.06A45.06,45.06,0,0,1,287.22,167.16Z"/>
    </clipPath>
  </defs>
  <g id="Layer_2" data-name="Layer 2">
    <g id="Layer_1-2" data-name="Layer 1">
      <g>
        <path class="cls-1" d="M189.19,167.16a45.07,45.07,0,1,1-45.07-45.06A45.07,45.07,0,0,1,189.19,167.16Z"/>
        <g class="cls-6">
          <g>
            <path class="cls-7" d="M170.68,194.74c-3-3.53-27-11.28-27-11.28s-23.45,8.57-27,11.28-4.85,19.83-4.85,19.83h63S173.71,198.27,170.68,194.74Z"/>
            <path class="cls-8" d="M154.61,188.41l-10.9,4.16-10.91-4.16v-5.56A37.32,37.32,0,0,1,144,181.1a31.82,31.82,0,0,1,10.64,1.75Z"/>
            <polygon class="cls-9" points="152.97 183.31 143.71 187.47 134.44 183.31 134.44 176 152.97 176 152.97 183.31"/>
            <path d="M162.39,161.65V151.59c0-14.09-5.65-23.54-18.42-23.54s-18.41,9.45-18.41,23.54v10.06a54.93,54.93,0,0,0,5.38-5.24c1.16-1.31-2.79-8.53-1.59-11.56a16.39,16.39,0,0,1,5.2-6.3s1.55,1.79,8.41,2.42c7,.65,9.48-3.23,9.48-3.23s.6,16.09,2.17,18.2A15.79,15.79,0,0,0,162.39,161.65Z"/>
            <path class="cls-10" d="M163.31,157.42c0,3.14-2.22,7.44-3.72,7.44s-2.71-2.54-2.71-5.67a6.72,6.72,0,0,1,2.71-5.67C161,152.38,163.31,153.52,163.31,157.42Z"/>
            <path class="cls-10" d="M124.51,157.42c0,3.14,2.22,7.44,3.72,7.44s2.71-2.54,2.71-5.67a6.72,6.72,0,0,0-2.71-5.67C126.78,152.38,124.51,153.52,124.51,157.42Z"/>
            <path class="cls-10" d="M144,132.59c-10.52,0-15.18,7.37-15.18,18.37v13.78c0,2,.74,7.22,1.52,8.82,2.49,5.14,9.87,10.84,13.37,10.84s11.8-5.64,13.77-10.52a42.21,42.21,0,0,0,1.7-10V151C159.15,140,154.49,132.59,144,132.59Z"/>
            <path d="M159.15,158.81l.94-5.71c.67-13-5.6-22.58-16.12-22.58s-16.25,11-15.84,22.58l.66,5.71s0-4.29,2.15-6.55c.95-1,0-4.19,1-6.56a13,13,0,0,1,4.29-4.91s1.28,1.39,6.93,1.88c5.8.51,7.81-2.52,7.81-2.52s3.46.27,5.36,4.7c1.23,2.87.29,4.19.19,6S159.15,158.81,159.15,158.81Z"/>
          </g>
        </g>
      </g>
      <g>
        <path class="cls-2" d="M287.61,45.13A45.13,45.13,0,1,1,242.49,0,45.12,45.12,0,0,1,287.61,45.13Z"/>
        <g class="cls-11">
          <g>
            <path class="cls-12" d="M261.78,28.07c-2.39.8.28,10.34,3,6.51.18,1.41-.5,2.87-2.06,2.8-.38,1.61,2,1.3,2.05,3.19s-1.7,1.7-1.7,3.41a2.41,2.41,0,0,0,3.22,2.13c1.76-.63,1.89-2.15,2.27-3.49a4.74,4.74,0,0,1,.21,4.73c1.11.14,1.69-.86,1.72-1.84a3.09,3.09,0,0,1-.2,3.17c.42-.09,1,.13,1.46.06.28,1.65-1.12,3.5-2.43,4.47s-4.23.81-1.9,2.74c1.72,1.43,3.16.61,3.22,3.37,0,2-.9,3.81-3,3.75a.59.59,0,0,0-.14-.33,4.66,4.66,0,0,1-.47,6.16c.32-1,.49-2.49-.52-3.13.14.8,0,1.62-.76,1.91.32,3.7-6.64,3.89-9.12,4.13-1.89.18-3.63,1-5.49,1.15a38.43,38.43,0,0,1-5.46-.23c-.17-7.66-4.25-14.6-7-21.61-1.24-3.17.58-5.07,2.84-7.53,3.24-3.55,6.78-6.62,9.61-10.41Z"/>
            <path class="cls-12" d="M222.21,28.07c2.39.8-.28,10.34-3,6.51-.18,1.41.5,2.87,2.06,2.8.38,1.61-2,1.3-2,3.19s1.7,1.7,1.7,3.41a2.41,2.41,0,0,1-3.22,2.13c-1.76-.63-1.89-2.15-2.27-3.49a4.74,4.74,0,0,0-.21,4.73c-1.11.14-1.69-.86-1.73-1.84a3.11,3.11,0,0,0,.21,3.17c-.42-.09-1,.13-1.46.06-.28,1.65,1.13,3.5,2.43,4.47s4.23.81,1.9,2.74c-1.71,1.43-3.17.61-3.22,3.37,0,2,.9,3.81,3,3.75a.59.59,0,0,1,.14-.33,4.66,4.66,0,0,0,.47,6.16c-.32-1-.49-2.49.52-3.13-.14.8,0,1.62.76,1.91-.32,3.7,6.64,3.89,9.12,4.13,1.89.18,3.63,1,5.49,1.15a38.43,38.43,0,0,0,5.46-.23c.17-7.66,4.26-14.6,7-21.61,1.23-3.17-.59-5.07-2.84-7.53-3.25-3.55-6.79-6.62-9.62-10.41Z"/>
            <path class="cls-13" d="M267,71.51c-2.83-3.54-25.28-11.3-25.28-11.3s-22,8.59-25.28,11.3-4.55,19.86-4.55,19.86h59S269.8,75.05,267,71.51Z"/>
            <path class="cls-9" d="M248.64,64.36s-.86,4.16-7,4.16-7-4.16-7-4.16a9.24,9.24,0,0,0,0-7.33c-1.69-4,16-4.75,13.91,0S248.64,64.36,248.64,64.36Z"/>
            <path class="cls-12" d="M256.2,48.74c.44-5.94,4.2-14.49,4.2-14.49,5.36-12-3.24-29.47-10.57-24.47C242-.71,215.58,11,223.53,34.09c0,0,3.26,7.95,3.58,13.82S238,59.42,241.35,59.61,255.76,54.67,256.2,48.74Z"/>
            <path class="cls-10" d="M261.33,37.68c0,3.14-2.22,7.45-3.72,7.45s-2.72-2.55-2.72-5.68a6.73,6.73,0,0,1,2.72-5.68C259.06,32.63,261.33,33.77,261.33,37.68Z"/>
            <path class="cls-10" d="M222.48,37.68c0,3.14,2.22,7.45,3.72,7.45s2.71-2.55,2.71-5.68a6.73,6.73,0,0,0-2.71-5.68C224.75,32.63,222.48,33.77,222.48,37.68Z"/>
            <path class="cls-10" d="M242,12.81c-10.54,0-15.2,7.38-15.2,18.4V45c0,9.59,11.08,17.8,14.58,17.8s15.81-9.6,15.81-18.68V31.21C257.16,20.19,252.51,12.81,242,12.81Z"/>
            <path class="cls-12" d="M257.16,39.07l.45-5.72c2.29-11.14-5-21.91-15.55-21.91s-18.7,11.75-15.89,22.89l.6,6.5A7.79,7.79,0,0,0,229.15,36c.47-4.11,3.45-8.12,9.22-9.22,9.09-1.73,11.64-7.18,11.64-7.18a43.5,43.5,0,0,1,3.82,7.18c1.23,2.87,0,4.63,1.06,7.5A25.5,25.5,0,0,0,257.16,39.07Z"/>
          </g>
        </g>
      </g>
      <g>
        <path class="cls-3" d="M90.13,167.16A45.07,45.07,0,1,1,45.07,122.1,45.06,45.06,0,0,1,90.13,167.16Z"/>
        <g class="cls-14">
          <g>
            <path class="cls-15" d="M70,193.51C67.2,190,44.78,182.23,44.78,182.23s-22,8.57-25.25,11.28S15,213.34,15,213.34H73.92S72.86,197,70,193.51Z"/>
            <path class="cls-9" d="M51.73,186.36s-.86,4.16-6.95,4.16-6.94-4.16-6.94-4.16a9.24,9.24,0,0,0,0-7.31c-1.69-4,16-4.75,13.89,0S51.73,186.36,51.73,186.36Z"/>
            <path class="cls-16" d="M59.28,170.77c.44-5.93,4.2-14.47,4.2-14.47,5.35-12-.2-30-10.57-24.44-12.83-11.72-33.12,4.67-26.26,24.28,0,0,3.26,7.94,3.58,13.8s10.84,17.58,14.22,17.77S58.84,176.69,59.28,170.77Z"/>
            <path class="cls-10" d="M64.4,159.73c0,3.13-2.22,7.43-3.72,7.43S58,164.62,58,161.49a6.75,6.75,0,0,1,2.71-5.67C62.13,154.68,64.4,155.82,64.4,159.73Z"/>
            <path class="cls-10" d="M25.6,159.73c0,3.13,2.22,7.43,3.72,7.43S32,164.62,32,161.49a6.72,6.72,0,0,0-2.71-5.67C27.87,154.68,25.6,155.82,25.6,159.73Z"/>
            <path class="cls-10" d="M45.07,134.89c-10.53,0-15.18,7.37-15.18,18.37V167c0,9.58,11.07,17.77,14.56,17.77s15.79-9.58,15.79-18.66V153.26C60.24,142.26,55.59,134.89,45.07,134.89Z"/>
            <path class="cls-16" d="M60.24,161.11l.95-8c0-11-5.6-19.2-16.12-19.2s-16.25,9.38-16.25,20.38l1.07,8.61a5.88,5.88,0,0,0,2.38-4.79c-.25-7.07,3.44-8.11,9.2-9.21,9.08-1.73,11.63-7.17,11.63-7.17s3,1,4.87,5.44c1.23,2.87-.37,6-.47,7.78S60.24,161.11,60.24,161.11Z"/>
            <path class="cls-16" d="M46.05,179.07a12.08,12.08,0,0,1-3.19,0c1.7,2.61,0,6.31,0,6.31h3.19A8.55,8.55,0,0,1,46.05,179.07Z"/>
          </g>
        </g>
      </g>
      <g>
        <path class="cls-4" d="M189.45,45.13A45.13,45.13,0,1,1,144.32,0,45.13,45.13,0,0,1,189.45,45.13Z"/>
        <g class="cls-17">
          <g>
            <path class="cls-18" d="M168.32,71.51C165.49,68,143,60.21,143,60.21s-22,8.59-25.28,11.3-4.55,19.86-4.55,19.86h59S171.16,75.05,168.32,71.51Z"/>
            <path class="cls-9" d="M150,64.35a5.35,5.35,0,0,1-3.14,3.45c-1,.43-2.2,5.9-3.82,5.9s-3-5.51-4-6a5.3,5.3,0,0,1-3-3.37,9.22,9.22,0,0,0,0-7.32c-1.69-4,16-4.75,13.91,0S150,64.35,150,64.35Z"/>
            <path class="cls-19" d="M158.91,48.61c1.29-5.81,2.85-14.36,2.85-14.36,5.36-12-.19-30-10.57-24.47C138.34-2,118,14.45,124.89,34.09a137.15,137.15,0,0,0,2.17,14.71c1.5,6.44,12.59,11.22,16,11.41S157.54,54.77,158.91,48.61Z"/>
            <path class="cls-10" d="M162.69,37.68c0,3.14-2.22,7.45-3.72,7.45s-2.72-2.55-2.72-5.68A6.73,6.73,0,0,1,159,33.77C160.42,32.63,162.69,33.77,162.69,37.68Z"/>
            <path class="cls-10" d="M123.84,37.68c0,3.14,2.22,7.45,3.72,7.45s2.72-2.55,2.72-5.68a6.73,6.73,0,0,0-2.72-5.68C126.11,32.63,123.84,33.77,123.84,37.68Z"/>
            <path class="cls-10" d="M143.33,12.81c-10.54,0-15.2,7.39-15.2,18.4V45c0,9.59,11.08,17.8,14.58,17.8s15.81-9.59,15.81-18.68V31.21C158.52,20.2,153.87,12.81,143.33,12.81Z"/>
            <path class="cls-19" d="M158.52,39.07l.95-8c0-11-5.6-19.22-16.14-19.22S127.59,20,127.59,31l.54,9.8a10.26,10.26,0,0,0,1.14-5.2c-.26-7.07,4.69-7.71,10.46-8.81,9.09-1.73,11.64-7.18,11.64-7.18s3,1,4.88,5.45a24.67,24.67,0,0,1,1.43,9.07A19.31,19.31,0,0,0,158.52,39.07Z"/>
            <g>
              <path class="cls-20" d="M134.38,31c-4.08,0-6.63,1.52-6.63,3.13,0,2.55.94,6.7,5,7.19s9-1,9-7.48C141.76,32.36,138.46,31,134.38,31ZM133,40.61c-3.47-.41-4.27-4-4.27-6.15,0-1.38,2.18-2.68,5.67-2.68s6.33,1.14,6.33,2.43C140.76,39.81,136.38,41,133,40.61Z"/>
              <path class="cls-20" d="M144.32,35.53a1.41,1.41,0,0,0-1.54-1c-.92,0-1.15,1.1-1.15,1.1l-.49-2.88a2.46,2.46,0,0,0,1.12.58,4.52,4.52,0,0,0,1.23,0,1.8,1.8,0,0,0,.83-.58Z"/>
              <path class="cls-20" d="M128.32,37.09s-1.47-.1-1.47-.86V34c0-1.19,1.47-.81,1.47-.81Z"/>
              <path class="cls-20" d="M143.66,33.87c0,6.53,5.12,8,9,7.48s5-4.64,5-7.19c0-1.61-2.55-3.13-6.63-3.13S143.66,32.36,143.66,33.87Zm1,.34c0-1.29,2.83-2.43,6.32-2.43s5.68,1.3,5.68,2.68c0,2.18-.8,5.74-4.27,6.15S144.67,39.81,144.67,34.21Z"/>
              <path class="cls-20" d="M157.11,37.09s1.46-.1,1.46-.86V34c0-1.19-1.46-.81-1.46-.81Z"/>
            </g>
          </g>
        </g>
      </g>
      <g>
        <path class="cls-5" d="M90.25,45.13A45.13,45.13,0,1,1,45.13,0,45.12,45.12,0,0,1,90.25,45.13Z"/>
        <g class="cls-21">
          <g>
            <path class="cls-22" d="M62.3,49.42c.44-5.93,1.17-15.17,1.17-15.17,5.35-12-3.24-29.47-10.58-24.47C45-.71,18.64,11,26.59,34.09A73.29,73.29,0,0,1,25.54,49c-2,10.24-5.58,21.3-2.26,23.84,4.67,3.58,39,4,41.11,1.3C67.79,69.81,61.86,55.35,62.3,49.42Z"/>
            <path class="cls-23" d="M70,71.51C67.19,68,44.74,60.21,44.74,60.21s-22,8.59-25.28,11.3-4.55,19.86-4.55,19.86h59S72.86,75.05,70,71.51Z"/>
            <path class="cls-9" d="M51.7,64.35s-.86,4.17-7,4.17-7-4.17-7-4.17a9.27,9.27,0,0,0,0-7.32c-1.7-4,16-4.75,13.9,0S51.7,64.35,51.7,64.35Z"/>
            <path class="cls-10" d="M64.39,37.68c0,3.14-2.22,7.45-3.72,7.45S58,42.58,58,39.45a6.73,6.73,0,0,1,2.72-5.68C62.12,32.63,64.39,33.77,64.39,37.68Z"/>
            <path class="cls-10" d="M25.54,37.68c0,3.14,2.23,7.45,3.72,7.45S32,42.58,32,39.45a6.73,6.73,0,0,0-2.72-5.68C27.81,32.63,25.54,33.77,25.54,37.68Z"/>
            <path class="cls-10" d="M45,12.81c-10.54,0-15.2,7.39-15.2,18.4V45c0,9.59,11.09,17.8,14.59,17.8s15.81-9.59,15.81-18.68V31.21C60.23,20.2,55.57,12.81,45,12.81Z"/>
            <path class="cls-22" d="M60.23,39.07l.44-5.72c2.3-11.14-5-21.91-15.54-21.91S26.42,23.19,29.24,34.33l.59,6.5A7.75,7.75,0,0,0,32.21,36c.28-2.36,1.19-11.91,1.19-11.91l1.15,5.64,12.71.83,2.18-4.46.87,4.66,4,.27L57,23.26s.37,6.78,1.17,11.88C58.63,38.34,60.23,39.07,60.23,39.07Z"/>
          </g>
        </g>
      </g>
      <g>
        <path class="cls-5" d="M287.22,167.16a45.07,45.07,0,1,1-45.06-45.06A45.06,45.06,0,0,1,287.22,167.16Z"/>
        <g class="cls-24">
          <g>
            <path class="cls-25" d="M220.91,182.23c3.78,8.53,34.83,9.4,39.26.92-5.2-3.54-1.1-16.93-1.1-16.93l1.4-9.92c3.16-12.67-7.76-31.7-18.56-25-6.31-6.26-22,7.12-18.26,24.83l.07,8.1S226.88,179.23,220.91,182.23Z"/>
            <path class="cls-26" d="M267,193.51c-2.83-3.53-25.25-11.28-25.25-11.28s-21.94,8.57-25.25,11.28S212,213.34,212,213.34h58.93S269.85,197,267,193.51Z"/>
            <path class="cls-9" d="M248.72,186.36s-.86,4.16-6.94,4.16-6.94-4.16-6.94-4.16a9.24,9.24,0,0,0,0-7.31c-1.7-4,15.95-4.75,13.88,0S248.72,186.36,248.72,186.36Z"/>
            <path class="cls-10" d="M261.4,159.72c0,3.14-2.23,7.44-3.72,7.44s-2.71-2.54-2.71-5.67a6.72,6.72,0,0,1,2.71-5.67C259.13,154.68,261.4,155.82,261.4,159.72Z"/>
            <path class="cls-10" d="M222.6,159.72c0,3.14,2.22,7.44,3.71,7.44s2.71-2.54,2.71-5.67a6.72,6.72,0,0,0-2.71-5.67C224.87,154.68,222.6,155.82,222.6,159.72Z"/>
            <path class="cls-10" d="M242.06,134.89c-10.53,0-15.18,7.37-15.18,18.37V167c0,9.58,11.07,17.77,14.57,17.77s15.79-9.58,15.79-18.66V153.26C257.24,142.26,252.58,134.89,242.06,134.89Z"/>
            <path class="cls-25" d="M257.24,161.11l.44-5.71c2.29-11.12-5-21.88-15.52-21.88s-18.69,11.74-15.87,22.86l.59,6.5a7.79,7.79,0,0,0,2.38-4.79s11.84-6,12.55-17.18c3.77,9.43,13.33,16.28,13.33,16.28C255.64,160.38,257.24,161.11,257.24,161.11Z"/>
          </g>
          <g>
            <path class="cls-20" d="M234.07,154.37c-4.07,0-6.61,1.51-6.61,3.12,0,2.55.93,6.69,5,7.18s9-.94,9-7.47C241.45,155.69,238.15,154.37,234.07,154.37Zm-1.35,9.57c-3.46-.42-4.26-4-4.26-6.15,0-1.38,2.18-2.67,5.67-2.67s6.31,1.13,6.31,2.42C240.44,163.13,236.07,164.34,232.72,163.94Z"/>
            <path class="cls-20" d="M244,158.86a1.4,1.4,0,0,0-1.53-1c-.93,0-1.16,1.08-1.16,1.08l-.49-2.87a2.52,2.52,0,0,0,1.12.58,4.52,4.52,0,0,0,1.23,0,1.8,1.8,0,0,0,.83-.58Z"/>
            <path class="cls-20" d="M228,160.42s-1.46-.11-1.46-.86V157.3c0-1.18,1.46-.81,1.46-.81Z"/>
            <path class="cls-20" d="M243.34,157.2c0,6.53,5.11,8,9,7.47s5-4.63,5-7.18c0-1.61-2.55-3.12-6.62-3.12S243.34,155.69,243.34,157.2Zm1,.34c0-1.29,2.83-2.42,6.31-2.42s5.67,1.29,5.67,2.67c0,2.18-.8,5.73-4.26,6.15S244.35,163.13,244.35,157.54Z"/>
            <path class="cls-20" d="M256.77,160.42s1.47-.11,1.47-.86V157.3c0-1.18-1.47-.81-1.47-.81Z"/>
          </g>
        </g>
      </g>
    </g>
  </g>
</svg>
