<?xml version="1.0" encoding="utf-8" ?>
<!-- Generator: Adobe Illustrator 20.1.0, SVG Export Plug-In . SVG Version: 6.00 Build 0)  -->
<!-- Credit: <a href="https://www.vecteezy.com/free-vector/staff">Staff Vectors by Vecteezy</a> -->
<svg
  version="1.0"
  id="Layer_1"
  xmlns="http://www.w3.org/2000/svg"
  xmlns:xlink="http://www.w3.org/1999/xlink"
  x="0px"
  y="0px"
  width="1400px"
  height="980px"
  viewBox="0 0 1400 980"
  enable-background="new 0 0 1400 980"
  xml:space="preserve"
>
<rect fill="#FFEACE" width="1400" height="980" />
<g>
	<g>
		<path
        fill="#E36E4B"
        d="M330.1,460.3H166.4v-54.7c0-33.5,27.1-60.6,60.6-60.6h42.4c33.5,0,60.6,27.1,60.6,60.6V460.3z"
      />
		<path
        opacity="5.000000e-02"
        d="M269.5,345h-0.2c23.8,8.9,40.8,31.8,40.8,58.7v56.6h20v-54.7C330.1,372.1,302.9,345,269.5,345z"
      />
		<path
        fill="#E8B894"
        d="M268.3,355.8L268.3,355.8c-11.9,8.8-28.1,8.8-40,0l0,0v-71.6h40V355.8z"
      />
		<path fill="#D1A685" d="M228.2,333c11.9,6.9,25.5,11.1,40,11.9v-60.6h-40V333z" />
		<g>
			<path
          fill="#E8B894"
          d="M336,246.9L336,246.9c-10.8,0-19.5-8.7-19.5-19.5v-8.3c0-10.8,8.7-19.5,19.5-19.5h0
				c10.8,0,19.5,8.7,19.5,19.5v8.3C355.5,238.2,346.8,246.9,336,246.9z"
        />
			<path
          fill="#E8B894"
          d="M160.5,246.9L160.5,246.9c-10.8,0-19.5-8.7-19.5-19.5v-8.3c0-10.8,8.7-19.5,19.5-19.5h0
				c10.8,0,19.5,8.7,19.5,19.5v8.3C180,238.2,171.3,246.9,160.5,246.9z"
        />
		</g>
		<path
        fill="#FFCAA3"
        d="M248.3,330.8L248.3,330.8c-48.9,0-88.6-39.7-88.6-88.6v-37.8c0-48.9,39.7-88.6,88.6-88.6h0
			c48.9,0,88.6,39.7,88.6,88.6v37.8C336.8,291.1,297.2,330.8,248.3,330.8z"
      />
		<path
        fill="#FF9D4E"
        d="M156.2,231.8c15.9-18.1,26.2-41,29.3-64.9c16.5,14.5,39.2,20.9,61.2,21.6c-1.7-4-4.2-8.9-5.9-12.9
			c14.4,11.9,34,14.6,52.3,18.7c18.2,4.1,37.9,11.5,46.3,28.2c4.9-29.3,5.8-58.1-4-86.2c-5.5-15.8-14-31.6-28.2-40.4
			c-13.5-8.4-30.4-9.4-46.3-8.7c-21.5,1-44.8,5.6-58.9,22c-10-5-24.8-0.5-33.8,6.1c-9,6.7-14.7,17.1-17.6,28
			c-2.9,10.8-3.4,22.2-3.7,33.4C146.5,195.2,147.6,215.2,156.2,231.8z"
      />
		<path
        fill="#FF9D4E"
        d="M276.2,312.9c-6.3,0.9-13.6,0.9-18.2-3.5h-5.5h-9.2h-5.5c-4.7,4.4-11.9,4.4-18.2,3.5
			c-16.8-2.5-32.7-10.4-45.2-22c15.8,24,43,39.8,73.9,39.8h0c31.8,0,59.6-16.7,75.3-41.9C310.8,301.6,294,310.3,276.2,312.9z"
      />
	</g>
	<g>
		<path
        fill="#E36E4B"
        d="M622.1,460.3H458.5v-54.7c0-33.5,27.1-60.6,60.6-60.6h42.4c33.5,0,60.6,27.1,60.6,60.6V460.3z"
      />
		<path
        opacity="5.000000e-02"
        d="M561.5,345h-0.2c23.8,8.9,40.8,31.8,40.8,58.7v56.6h20v-54.7C622.1,372.1,595,345,561.5,345z"
      />
		<path
        fill="#E8B894"
        d="M560.3,355.8L560.3,355.8c-11.9,8.8-28.1,8.8-40,0l0,0v-71.6h40V355.8z"
      />
		<path fill="#D1A685" d="M520.3,333c11.9,6.9,25.5,11.1,40,11.9v-60.6h-40V333z" />
		<g>
			<path
          fill="#E8B894"
          d="M628,246.9L628,246.9c-10.8,0-19.5-8.7-19.5-19.5v-8.3c0-10.8,8.7-19.5,19.5-19.5h0
				c10.8,0,19.5,8.7,19.5,19.5v8.3C647.6,238.2,638.8,246.9,628,246.9z"
        />
			<path
          fill="#E8B894"
          d="M452.5,246.9L452.5,246.9c-10.8,0-19.5-8.7-19.5-19.5v-8.3c0-10.8,8.7-19.5,19.5-19.5h0
				c10.8,0,19.5,8.7,19.5,19.5v8.3C472,238.2,463.3,246.9,452.5,246.9z"
        />
		</g>
		<path
        fill="#FFCAA3"
        d="M540.3,330.8L540.3,330.8c-48.9,0-88.6-39.7-88.6-88.6v-37.8c0-48.9,39.7-88.6,88.6-88.6h0
			c48.9,0,88.6,39.7,88.6,88.6v37.8C628.9,291.1,589.2,330.8,540.3,330.8z"
      />
		<path
        fill="#9D5300"
        d="M449.2,222.5c5-6.5,10.3-13.4,15.2-19.9c44.7,6.9,92.3-7.8,125.4-38.7c2.5,16.7,13.8,32.5,29.9,37.6
			c3.9,5.7,7,12.6,8.4,19.3c4.3-31.4,3.4-62.7-8-92.2c-3.9-10.2-9-20.3-17.2-27.4c-8.2-7.1-20.3-10.7-30.4-6.5
			c-19.5-10.2-45-18.7-66.9-17.4c-22,1.3-43.9,10.9-57.5,28.2c-12.6,16.1-17.1,37.4-16.3,57.8C432.5,183.7,443.8,202.8,449.2,222.5z
			"
      />
		<path
        fill="#9D5300"
        d="M543.3,280.6c0-0.1-0.1-0.2-0.1-0.3c-1.2,0-2.3,0.1-3.5,0.1c-1.2,0-2.3-0.1-3.5-0.1c0,0.1-0.1,0.2-0.1,0.3
			c-14.2,0.8-28.4,3.4-42,7.8c10.3,8.7,24.1,12,37.3,9.2c2.9-0.6,5.8-1.6,8.2-3.3c2.4,1.7,5.3,2.7,8.2,3.3c13.2,2.9,27-0.5,37.3-9.2
			C571.7,284,557.6,281.4,543.3,280.6z"
      />
	</g>
	<g>
		<path
        fill="#44A3E3"
        d="M914.1,460.3H750.5v-54.7c0-33.5,27.1-60.6,60.6-60.6h42.4c33.5,0,60.6,27.1,60.6,60.6V460.3z"
      />
		<path
        opacity="5.000000e-02"
        d="M853.5,345h-0.2c23.8,8.9,40.8,31.8,40.8,58.7v56.6h20v-54.7C914.1,372.1,887,345,853.5,345z"
      />
		<path
        fill="#E8B894"
        d="M852.3,355.8L852.3,355.8c-11.9,8.8-28.1,8.8-40,0l0,0v-71.6h40V355.8z"
      />
		<path fill="#D1A685" d="M812.3,333c11.9,6.9,25.5,11.1,40,11.9v-60.6h-40V333z" />
		<g>
			<path
          fill="#E8B894"
          d="M920.1,246.9L920.1,246.9c-10.8,0-19.5-8.7-19.5-19.5v-8.3c0-10.8,8.7-19.5,19.5-19.5h0
				c10.8,0,19.5,8.7,19.5,19.5v8.3C939.6,238.2,930.9,246.9,920.1,246.9z"
        />
			<path
          fill="#E8B894"
          d="M744.6,246.9L744.6,246.9c-10.8,0-19.5-8.7-19.5-19.5v-8.3c0-10.8,8.7-19.5,19.5-19.5l0,0
				c10.8,0,19.5,8.7,19.5,19.5v8.3C764.1,238.2,755.3,246.9,744.6,246.9z"
        />
		</g>
		<path
        fill="#FFCAA3"
        d="M832.3,330.8L832.3,330.8c-48.9,0-88.6-39.7-88.6-88.6v-37.8c0-48.9,39.7-88.6,88.6-88.6h0
			c48.9,0,88.6,39.7,88.6,88.6v37.8C920.9,291.1,881.2,330.8,832.3,330.8z"
      />
		<path
        fill="#61330E"
        d="M903,123.2c-17.9-22.9-45.6-33.5-71-28.9c-25.4-4.6-53.2,6.1-71,28.9c-19.9,25.5-26.1,60.6-18.3,94.8h8.9
			c0.6-11.6,0.7-22.4,3.5-33.5c2.8-11.1,8.2-21.6,16.2-27.3c10.2-7.3,22.9-6,34.4-3.1c5.9,1.5,11.8,3.4,17.7,4.6
			c0,0,5.7,1.4,8.6,1.2c2.9,0.2,8.6-1.2,8.6-1.2c5.9-1.2,11.8-3.1,17.7-4.6c11.5-3,24.2-4.3,34.4,3.1c8,5.8,13.4,16.3,16.2,27.3
			c2.8,11.1,3,21.9,3.5,33.5h8.9C929.1,183.8,922.9,148.7,903,123.2z"
      />
		<path
        fill="#61330E"
        d="M864.1,314.9c-3.5-7.6-0.6-16.9-3.4-24.9c-2.1-5.8-7.2-10.2-12.8-12.8c-4.4-2-9.1-3.1-13.8-4
			c0,0-1.4-0.5-2-0.4c-0.7-0.1-2,0.4-2,0.4c-4.8,0.9-9.5,2-13.8,4c-5.6,2.6-10.7,6.9-12.8,12.8c-2.9,7.9,0.1,17.2-3.4,24.9
			c-1.3,2.9-3.6,5.3-6.3,6.9c11.7,5.7,24.9,9,38.9,9h0c13.8,0,26.8-3.2,38.5-8.8C867.9,320.4,865.5,317.9,864.1,314.9z M843.4,317.6
			c-3.1,2.8-7.3,4.4-11.5,4.6c-4.2-0.2-8.4-1.8-11.5-4.6c-4.6-4.1-6.8-10.6-5.9-16.6c0.9-5.8,4.6-10.8,9.2-14.4c0,0,0,0,0.1-0.1
			c4.7-3.6,11.4-3.6,16.1,0c0,0,0,0,0.1,0.1c4.6,3.6,8.3,8.6,9.2,14.4C850.3,307,848,313.5,843.4,317.6z"
      />
	</g>
	<g>
		<path
        fill="#9D362E"
        d="M1206.2,460.3h-163.6v-54.7c0-33.5,27.1-60.6,60.6-60.6h42.4c33.5,0,60.6,27.1,60.6,60.6V460.3z"
      />
		<path
        opacity="5.000000e-02"
        d="M1145.6,345h-0.2c23.8,8.9,40.8,31.8,40.8,58.7v56.6h20v-54.7C1206.2,372.1,1179,345,1145.6,345z"
      />
		<path
        fill="#E8B894"
        d="M1144.4,355.8L1144.4,355.8c-11.9,8.8-28.1,8.8-40,0l0,0v-71.6h40V355.8z"
      />
		<path
        fill="#D1A685"
        d="M1104.4,333c11.9,6.9,25.5,11.1,40,11.9v-60.6h-40V333z"
      />
		<g>
			<path
          fill="#E8B894"
          d="M1212.1,246.9L1212.1,246.9c-10.8,0-19.5-8.7-19.5-19.5v-8.3c0-10.8,8.7-19.5,19.5-19.5h0
				c10.8,0,19.5,8.7,19.5,19.5v8.3C1231.6,238.2,1222.9,246.9,1212.1,246.9z"
        />
			<path
          fill="#E8B894"
          d="M1036.6,246.9L1036.6,246.9c-10.8,0-19.5-8.7-19.5-19.5v-8.3c0-10.8,8.7-19.5,19.5-19.5l0,0
				c10.8,0,19.5,8.7,19.5,19.5v8.3C1056.1,238.2,1047.4,246.9,1036.6,246.9z"
        />
		</g>
		<path
        fill="#FFCAA3"
        d="M1124.4,330.8L1124.4,330.8c-48.9,0-88.6-39.7-88.6-88.6v-37.8c0-48.9,39.7-88.6,88.6-88.6h0
			c48.9,0,88.6,39.7,88.6,88.6v37.8C1212.9,291.1,1173.3,330.8,1124.4,330.8z"
      />
		<path
        fill="#D4D4D4"
        d="M1036.3,231c2.7-7.6,9.2-13.4,15.8-18.6s13.5-10.3,17.7-17.3c4.5-7.6,9.9-14.8,8.4-23.4
			c-1.4-8.6-7.7-16.5-16.3-19.9c-8.6-3.4-19.3-2-26.2,4c-5.6,4.8-8.3,12-8.9,19.1c-0.6,7.1,0.7,14.2,2,21.2
			C1030.9,207.9,1034.2,219.3,1036.3,231z"
      />
		<path
        fill="#D4D4D4"
        d="M1212.5,231c-2.7-7.6-9.2-13.4-15.8-18.6c-6.5-5.2-13.5-10.3-17.7-17.3c-4.5-7.6-9.9-14.8-8.4-23.4
			c1.4-8.6,7.7-16.5,16.3-19.9c8.6-3.4,19.3-2,26.2,4c5.6,4.8,8.3,12,8.9,19.1c0.6,7.1-0.7,14.2-2,21.2
			C1217.9,207.9,1214.7,219.3,1212.5,231z"
      />
	</g>
	<g>
		<path
        fill="#18CBEF"
        d="M330.1,902.9H166.4v-54.7c0-33.5,27.1-60.6,60.6-60.6h42.4c33.5,0,60.6,27.1,60.6,60.6V902.9z"
      />
		<path
        opacity="5.000000e-02"
        d="M269.5,787.6h-0.2c23.8,8.9,40.8,31.8,40.8,58.7v56.6h20v-54.7
			C330.1,814.7,302.9,787.6,269.5,787.6z"
      />
		<path
        fill="#E8B894"
        d="M268.3,798.4L268.3,798.4c-11.9,8.8-28.1,8.8-40,0l0,0v-71.6h40V798.4z"
      />
		<path
        fill="#D1A685"
        d="M228.2,775.6c11.9,6.9,25.5,11.1,40,11.9v-60.6h-40V775.6z"
      />
		<g>
			<path
          fill="#E8B894"
          d="M336,689.6L336,689.6c-10.8,0-19.5-8.7-19.5-19.5v-8.3c0-10.8,8.7-19.5,19.5-19.5h0
				c10.8,0,19.5,8.7,19.5,19.5v8.3C355.5,680.8,346.8,689.6,336,689.6z"
        />
			<path
          fill="#E8B894"
          d="M160.5,689.6L160.5,689.6c-10.8,0-19.5-8.7-19.5-19.5v-8.3c0-10.8,8.7-19.5,19.5-19.5h0
				c10.8,0,19.5,8.7,19.5,19.5v8.3C180,680.8,171.3,689.6,160.5,689.6z"
        />
		</g>
		<path
        fill="#FFCAA3"
        d="M248.3,773.4L248.3,773.4c-48.9,0-88.6-39.7-88.6-88.6V647c0-48.9,39.7-88.6,88.6-88.6h0
			c48.9,0,88.6,39.7,88.6,88.6v37.8C336.8,733.7,297.2,773.4,248.3,773.4z"
      />
		<path
        fill="#8F5000"
        d="M335.8,698.4c-3.3,5.4-8.1,9.9-13.7,12.8c-8.8,4.5-19.5,5.2-28.7,1.6c-7.7-3-14.1-8.5-21.2-12.8
			c-7.1-4.3-15.8-7.4-23.6-4.6c0,0.9-1.3,0.9-1.3,0c-7.8-2.7-16.5,0.4-23.6,4.6c-7.1,4.3-13.5,9.8-21.2,12.8
			c-9.2,3.5-19.9,2.9-28.7-1.6c-5.1-2.7-9.6-6.7-12.8-11.5c7.1,41.8,43.5,73.7,87.3,73.7h0C292.6,773.4,329.3,740.8,335.8,698.4z"
      />
		<path
        fill="#8F5000"
        d="M162.7,702.2c-5.1,5.4-3.5,14.3,0.2,20.8c3.7,6.5,9.1,12,11.3,19.2c2.2,7.1,1.6,16.1,7.9,20
			c3.6,2.3,8.4,1.8,12.3,3.6c9.7,4.4,10.5,20.1,20.7,23.3c8.8,2.8,17.4-6.3,26.6-5.6c9.3,0.7,16.9,11.2,25.9,8.6
			c7.6-2.1,10.3-12.4,17.7-15c5.4-1.9,11.9,0.9,17.1-1.7c3.1-1.5,5-4.6,6.7-7.5c4.5-7.5,9-15,13.5-22.6c8-13.4,16.3-29,11.4-43.8
			c-5.1,15.8-17.9,27.9-33.3,34.1c-15.4,6.2-32.5,6.9-49,5.2C219.2,737.3,188,723,162.7,702.2z"
      />
		<path
        fill="#8F5000"
        d="M248.3,558.4L248.3,558.4c-48.9,0-88.6,39.7-88.6,88.6v37.8c0,11.8,2.3,23.1,6.5,33.4
			c2.4,2.8,4.3,2.8,8.5,4.3c-9.3-31.2-10-64.9-1.9-96.4c14-3.9,27.3-13.2,36.6-24.4c23.5,20.1,53,30.8,83.9,31
			c-2.1-4.3-3.5-9.4-5.6-13.7c13.6,3.6,28.1,7.8,37.2,18.5c9.7,11.6,10.8,28.1,8.9,43.1c-2,14.8-6.5,29.4-6.5,44.3
			c6.1-12,9.6-25.6,9.6-40.1V647C336.8,598,297.2,558.4,248.3,558.4z"
      />
		<path
        fill="#8F5000"
        d="M161.1,672.9c-7.7-16.5-13.7-34.6-11.8-52.7c1.9-18.1,13.3-36.2,30.9-41.3c8.7-22.5,26.5-42.1,49.6-49.2
			c23.1-7.1,49.3-3,69.2,10.8c23.2,16.1,36.4,43.6,40.9,71.5c4.4,27.9,1,56.3-3.2,84.2c-2.9-18-4.9-37-3.3-55.2
			c-18.6-32.3-53-54.1-90-58.2c-14.3-1.6-29.3-0.5-42,6.3c-13.7,7.3-23.5,20.7-29.5,35.1C166,638.4,163.7,657.5,161.1,672.9z"
      />
	</g>
	<g>
		<path
        fill="#DE5E00"
        d="M493.6,665c-1.8,18.8-16,34.1-30.9,45.7c-14.9,11.6-31.8,21.5-42.9,36.8c-11.1,15.3-14.6,38.5-1.7,52.3
			c0.1-10.7,9.1-19.3,19.4-22.1c10.3-2.7,21.3-1.9,31.7-4.1c21.1-4.4,38.9-21.9,43.5-43C517.4,709.6,510.9,677.8,493.6,665z"
      />
		<path
        fill="#DE5E00"
        d="M596.5,665c1.8,18.8,16,34.1,30.9,45.7c14.9,11.6,31.8,21.5,42.9,36.8c11.1,15.3,14.6,38.5,1.7,52.3
			c-0.1-10.7-9.1-19.3-19.4-22.1c-10.3-2.7-21.3-1.9-31.7-4.1c-21.1-4.4-38.9-21.9-43.5-43C572.7,709.6,579.2,677.8,596.5,665z"
      />
		<path
        fill="#FFB103"
        d="M622.1,902.9H458.5v-54.7c0-33.5,27.1-60.6,60.6-60.6h42.4c33.5,0,60.6,27.1,60.6,60.6V902.9z"
      />
		<path
        opacity="5.000000e-02"
        d="M561.5,787.6h-0.2c23.8,8.9,40.8,31.8,40.8,58.7v56.6h20v-54.7C622.1,814.7,595,787.6,561.5,787.6
			z"
      />
		<path
        fill="#E8B894"
        d="M560.3,798.4L560.3,798.4c-11.9,8.8-28.1,8.8-40,0l0,0v-71.6h40V798.4z"
      />
		<path
        fill="#D1A685"
        d="M520.3,775.6c11.9,6.9,25.5,11.1,40,11.9v-60.6h-40V775.6z"
      />
		<g>
			<path
          fill="#E8B894"
          d="M628,689.6L628,689.6c-10.8,0-19.5-8.7-19.5-19.5v-8.3c0-10.8,8.7-19.5,19.5-19.5h0
				c10.8,0,19.5,8.7,19.5,19.5v8.3C647.6,680.8,638.8,689.6,628,689.6z"
        />
			<path
          fill="#E8B894"
          d="M452.5,689.6L452.5,689.6c-10.8,0-19.5-8.7-19.5-19.5v-8.3c0-10.8,8.7-19.5,19.5-19.5h0
				c10.8,0,19.5,8.7,19.5,19.5v8.3C472,680.8,463.3,689.6,452.5,689.6z"
        />
		</g>
		<path
        fill="#FFCAA3"
        d="M540.3,773.4L540.3,773.4c-48.9,0-88.6-39.7-88.6-88.6V647c0-48.9,39.7-88.6,88.6-88.6h0
			c48.9,0,88.6,39.7,88.6,88.6v37.8C628.9,733.7,589.2,773.4,540.3,773.4z"
      />
		<path
        fill="#DE5E00"
        d="M614.7,735.2c5.2-40.7-3.8-84.4-25.9-118.1c-14.2,9.5-32.4,8.1-49,5.6c-16.6-2.5-34.3-5.5-49.7,1.5
			c-16,7.2-26.5,24.3-30.9,42c-4.5,17.8-4.3,37.9-3.6,56.3c-7-19.9-14-39.9-17.5-60.8c-3.5-20.9-3.3-42.9,3.8-62.7
			c7.1-19.6,20.7-36.2,37.4-47.6c16.6-11.4,36-17.9,55.7-20.2c25.2-3,51,6.1,69,25c18.1,18.9,28.7,44.6,34.1,70.8
			c3.9,18.9,5.3,38.5,2,57.5C636.8,703.6,628,722,614.7,735.2z"
      />
	</g>
	<g>
		<path
        fill="#7D4118"
        d="M836.5,790.6c-27.6-0.9-54.5-11.9-75.6-29.8c-21-17.9-36.1-42.3-43.9-68.8c-8.4-28.3-8.3-59.8,4-86.6
			c12.3-26.8,37.8-48.2,67.2-51.8c11.7-1.4,22.4-11.7,33.8-14.6c43-10.6,91.1,10,115.6,47c24.5,37,25.4,87.3,5,126.7
			C922.2,752.1,880.8,792,836.5,790.6z"
      />
		<path
        fill="#47CCBF"
        d="M914.1,902.9H750.5v-54.7c0-33.5,27.1-60.6,60.6-60.6h42.4c33.5,0,60.6,27.1,60.6,60.6V902.9z"
      />
		<path
        opacity="5.000000e-02"
        d="M853.5,787.6h-0.2c23.8,8.9,40.8,31.8,40.8,58.7v56.6h20v-54.7C914.1,814.7,887,787.6,853.5,787.6
			z"
      />
		<path
        fill="#E8B894"
        d="M852.3,798.4L852.3,798.4c-11.9,8.8-28.1,8.8-40,0l0,0v-71.6h40V798.4z"
      />
		<path
        fill="#D1A685"
        d="M812.3,775.6c11.9,6.9,25.5,11.1,40,11.9v-60.6h-40V775.6z"
      />
		<g>
			<path
          fill="#E8B894"
          d="M920.1,689.6L920.1,689.6c-10.8,0-19.5-8.7-19.5-19.5v-8.3c0-10.8,8.7-19.5,19.5-19.5h0
				c10.8,0,19.5,8.7,19.5,19.5v8.3C939.6,680.8,930.9,689.6,920.1,689.6z"
        />
			<path
          fill="#E8B894"
          d="M744.6,689.6L744.6,689.6c-10.8,0-19.5-8.7-19.5-19.5v-8.3c0-10.8,8.7-19.5,19.5-19.5l0,0
				c10.8,0,19.5,8.7,19.5,19.5v8.3C764.1,680.8,755.3,689.6,744.6,689.6z"
        />
		</g>
		<path
        fill="#FFCAA3"
        d="M832.3,773.4L832.3,773.4c-48.9,0-88.6-39.7-88.6-88.6V647c0-48.9,39.7-88.6,88.6-88.6h0
			c48.9,0,88.6,39.7,88.6,88.6v37.8C920.9,733.7,881.2,773.4,832.3,773.4z"
      />
		<path
        fill="#7D4118"
        d="M723.9,699.9c18.3-20.3,33.4-43.9,44.4-69.5c4.9,10,14.3,14.2,24.8,15.1c10.6,1,21.1-1.4,31.6-2.3
			c50.9-4.5,92.5,15.6,114.8,64.4c-0.6-26.2,9-43.2,3.1-68.7c-5.8-25.5-17.4-50.3-36.4-67c-24.2-21.3-58.1-27.1-89.1-21.5
			c-31.5,5.7-61.6,23.1-80.7,50.3C717.5,628,712.7,668.1,723.9,699.9z"
      />
	</g>
	<g>
		<path
        fill="#FFA964"
        d="M1136.1,774.6c-7.2,3-14.5,5.9-22.1,7c-7.6,1.2-15.7,0.6-22.6-3.1c-6.9-3.7-12.5-10-13.5-18.2
			c-9.5,5.3-20.2,9.2-30.9,7.8c-10.7-1.3-21.7-8-24.5-19.1c-12.2,0.9-24.6-7-29.7-19c-5.1-11.9-2.5-29.2,6.1-38.6
			c-6.5,0.2-11.4-7.1-11.6-14c-0.2-6.9,3-13.4,6.3-19.4c4.8-8.9,11.3-18.1,19-24.2c-4.3-2.5-5.4-8.6-5.1-13.8
			c0.9-15.2,9.3-28.8,22.3-34.9c-3.9-6.7-4-15.8-0.4-22.6c3.7-6.9,11-11.3,18.4-11.1c7.8-15.2,22.8-27.2,38.9-29.9
			c3.1-0.5,6.4-0.8,9.5,0.1c3.1,0.9,6,2.9,7.3,6c7.2-5.2,17.1-7.8,25.7-6.5c8.6,1.3,16.6,6,22.2,13.1c8.5-3.8,18.9-3.5,27.3,0.4
			c8.4,3.9,15.2,11.6,18.4,20.8c15.2,6.7,27.3,22.3,27.7,39.9c10.2,5.2,18.3,15,21.7,26.5c3.4,11.5,2.2,24.5-3.4,35
			c9.6,7.9,16.1,20.3,15.9,33.3c-0.2,13-6.3,25.7-16.1,33.4c4,5.3,3.4,13.3,1.1,19.6c-2.3,6.4-7.2,11.4-12.8,14.7
			c-5.6,3.3-11.9,5.1-18.2,6.3c-0.4,4.9-5.2,10.2-9.6,11.7c-4.4,1.5-9.5-0.1-12.5-3.8c-1.8,3.8-5.7,6.7-9.4,8.3
			c-3.7,1.6-7.7,2.3-11.7,2.9c-6.3,1-12.8,2-19.1,0.7S1138.2,781.1,1136.1,774.6z"
      />
		<path
        fill="#BB6C00"
        d="M1206.2,902.9h-163.6v-54.7c0-33.5,27.1-60.6,60.6-60.6h42.4c33.5,0,60.6,27.1,60.6,60.6V902.9z"
      />
		<path
        opacity="5.000000e-02"
        d="M1145.6,787.6h-0.2c23.8,8.9,40.8,31.8,40.8,58.7v56.6h20v-54.7
			C1206.2,814.7,1179,787.6,1145.6,787.6z"
      />
		<path
        fill="#E8B894"
        d="M1144.4,798.4L1144.4,798.4c-11.9,8.8-28.1,8.8-40,0l0,0v-71.6h40V798.4z"
      />
		<path
        fill="#D1A685"
        d="M1104.4,775.6c11.9,6.9,25.5,11.1,40,11.9v-60.6h-40V775.6z"
      />
		<g>
			<path
          fill="#E8B894"
          d="M1212.1,689.6L1212.1,689.6c-10.8,0-19.5-8.7-19.5-19.5v-8.3c0-10.8,8.7-19.5,19.5-19.5h0
				c10.8,0,19.5,8.7,19.5,19.5v8.3C1231.6,680.8,1222.9,689.6,1212.1,689.6z"
        />
			<path
          fill="#E8B894"
          d="M1036.6,689.6L1036.6,689.6c-10.8,0-19.5-8.7-19.5-19.5v-8.3c0-10.8,8.7-19.5,19.5-19.5l0,0
				c10.8,0,19.5,8.7,19.5,19.5v8.3C1056.1,680.8,1047.4,689.6,1036.6,689.6z"
        />
		</g>
		<path
        fill="#FFCAA3"
        d="M1124.4,773.4L1124.4,773.4c-48.9,0-88.6-39.7-88.6-88.6V647c0-48.9,39.7-88.6,88.6-88.6h0
			c48.9,0,88.6,39.7,88.6,88.6v37.8C1212.9,733.7,1173.3,773.4,1124.4,773.4z"
      />
		<path
        fill="#FFA964"
        d="M1228.1,675.2c-17.5,1.1-34.1-10-40.6-26.3c-17.5,3.6-34.8-4.3-44.3-19.4c-16.2,8.8-38.3,7.7-52.6-4
			c0.1,7-2.6,14-7.4,19.1s-12.5,10-19.5,10.4c-3.6,7.2-11.7,11.8-19.7,11.2c-8-0.6-15.3-6.5-17.7-14.1c-5.5-17.8-7.9-40.5-1.7-58
			c6.3-17.5,19.3-32.5,35.7-41.3c25.3-13.4,55.9-11.5,83.9-5.7c14.1,3,28.3,7,40.5,14.8c17.8,11.5,29.8,30.6,35.7,50.9
			C1226.3,633.1,1229.8,654,1228.1,675.2z"
      />
	</g>
</g>
</svg>
